<?xml version="1.0" standalone="no"?>
<!DOCTYPE svg PUBLIC "-//W3C//DTD SVG 20010904//EN"
 "http://www.w3.org/TR/2001/REC-SVG-20010904/DTD/svg10.dtd">
<svg version="1.0" xmlns="http://www.w3.org/2000/svg"
 width="110.000000pt" height="26.000000pt" viewBox="0 0 110.000000 26.000000"
 preserveAspectRatio="xMidYMid meet">
<metadata>
Created by potrace 1.10, written by Peter Selinger 2001-2011
</metadata>
<g transform="translate(0.000000,26.000000) scale(0.100000,-0.100000)"
fill="#000000" stroke="none">
<path d="M30 234 c-15 -40 -13 -44 28 -43 31 2 32 3 9 6 -25 4 -28 7 -22 34 8
36 -2 38 -15 3z"/>
<path d="M200 250 c0 -6 9 -14 21 -17 16 -5 19 -11 15 -32 -6 -25 -6 -25 9 -7
20 26 20 57 0 50 -8 -4 -22 -1 -30 6 -12 10 -15 10 -15 0z"/>
<path d="M552 220 c4 -52 18 -52 18 0 0 22 -5 40 -10 40 -6 0 -9 -18 -8 -40z"/>
<path d="M125 220 c-18 -34 -18 -40 -5 -40 5 0 12 11 16 25 7 30 24 33 24 5 0
-11 6 -20 14 -20 12 0 12 4 0 30 -19 38 -29 38 -49 0z"/>
<path d="M805 220 c-16 -7 -11 -9 20 -9 22 0 47 4 55 9 19 13 -46 13 -75 0z"/>
<path d="M704 150 l-1 -60 24 16 c18 11 28 13 36 5 13 -13 44 -15 50 -3 11 19
17 82 7 82 -5 0 -10 -9 -10 -21 0 -11 -5 -29 -11 -41 -11 -20 -11 -20 -32 2
l-20 23 -11 -24 c-9 -21 -11 -18 -14 29 -4 71 -18 66 -18 -8z"/>
<path d="M588 173 c-2 -22 -10 -30 -35 -38 -46 -13 -41 -25 10 -25 61 0 117
11 117 22 0 6 -10 8 -22 4 -13 -3 -41 -9 -63 -12 -38 -5 -39 -5 -15 8 25 13
42 68 21 68 -5 0 -11 -12 -13 -27z"/>
<path d="M1026 152 c-15 -28 -17 -29 -77 -26 -53 2 -62 0 -66 -16 -3 -11 -16
-20 -32 -22 -19 -2 -27 -9 -28 -28 l-3 -25 12 23 c7 15 20 22 39 22 15 0 31 4
34 10 3 5 1 10 -6 10 -7 0 -9 3 -6 6 4 4 35 7 69 8 58 1 64 3 76 29 19 38 8
47 -12 9z"/>
<path d="M0 130 c0 -6 31 -10 73 -10 39 -1 98 -3 130 -7 34 -3 57 -1 57 4 0 6
-37 13 -83 16 -118 10 -177 8 -177 -3z"/>
<path d="M68 89 c-27 -15 -22 -39 8 -39 23 0 25 -3 20 -25 -4 -14 -2 -25 4
-25 5 0 10 23 10 50 0 52 -8 59 -42 39z m27 -20 c-4 -5 -13 -9 -22 -9 -13 0
-13 3 -3 15 13 15 35 11 25 -6z"/>
<path d="M140 74 c0 -21 22 -74 31 -74 5 0 4 12 -1 26 -13 33 -13 31 10 37 30
8 24 22 -10 22 -16 0 -30 -5 -30 -11z"/>
<path d="M1040 40 c-7 -13 -7 -20 -1 -20 6 0 15 9 21 20 7 13 7 20 1 20 -6 0
-15 -9 -21 -20z"/>
</g>
</svg>
